<svg width="25" height="24" viewBox="0 0 25 24" fill="none" xmlns="http://www.w3.org/2000/svg">
<path d="M9.16924 10.6616C9.30959 10.5806 9.42614 10.4641 9.50716 10.3238C9.58817 10.1834 9.63081 10.0243 9.63077 9.86225V1.5572C9.62995 1.41008 9.59395 1.26529 9.52578 1.1349C9.4576 1.00451 9.35923 0.892313 9.23887 0.807655C9.1185 0.722998 8.97964 0.668338 8.83385 0.648235C8.68806 0.628132 8.53958 0.643167 8.40078 0.692088C5.70654 1.64534 3.4408 3.52808 2.01085 6.00187C0.580897 8.47565 0.0805256 11.3782 0.599685 14.1878C0.626595 14.3331 0.688011 14.4698 0.778768 14.5864C0.869524 14.703 0.986968 14.7962 1.12122 14.858C1.24221 14.9145 1.37419 14.9437 1.50776 14.9433C1.66977 14.9434 1.82895 14.9008 1.96929 14.8199L9.16924 10.6616ZM7.78463 2.95522V9.32935L2.26006 12.5164C2.24621 12.3422 2.24621 12.1669 2.24621 11.9962C2.24785 10.1257 2.76577 8.29186 3.74296 6.69669C4.72015 5.10152 6.1187 3.80684 7.78463 2.95522ZM22.8238 6.05808C22.8134 6.03731 22.803 6.0154 22.7903 5.99464C22.7776 5.97387 22.7672 5.95657 22.7545 5.93812C21.6965 4.13154 20.1842 2.63302 18.3678 1.59135C16.5514 0.549673 14.4941 0.00106814 12.4 0C12.1552 0 11.9204 0.0972216 11.7473 0.270277C11.5742 0.443333 11.4769 0.678046 11.4769 0.922784V11.5152L2.38352 16.8097C2.278 16.8708 2.18564 16.9523 2.1118 17.0493C2.03795 17.1464 1.98407 17.2571 1.95328 17.375C1.92249 17.493 1.91539 17.6159 1.9324 17.7367C1.94941 17.8574 1.99018 17.9736 2.05237 18.0785C3.38651 20.3497 5.43127 22.1188 7.87108 23.1128C10.3109 24.1069 13.0101 24.2706 15.5523 23.5787C18.0944 22.8868 20.3381 21.3778 21.9371 19.2845C23.5361 17.1912 24.4016 14.63 24.3999 11.9962C24.4025 9.91315 23.8591 7.86577 22.8238 6.05808ZM13.3231 1.88709C14.787 2.02181 16.2043 2.47255 17.4771 3.2082C18.7498 3.94386 19.8477 4.94689 20.6949 6.14805L13.3231 10.4401V1.88709ZM12.4 22.1468C10.7886 22.1427 9.201 21.7571 7.76727 21.0218C6.33353 20.2864 5.09437 19.222 4.1512 17.9159L12.8511 12.8509L12.8765 12.8348L21.6191 7.74446C22.3327 9.29099 22.6456 10.9921 22.529 12.6913C22.4123 14.3904 21.8699 16.0329 20.9516 17.4674C20.0333 18.902 18.7687 20.0825 17.2743 20.9002C15.7799 21.718 14.1036 22.1467 12.4 22.1468Z" fill="#3FC174"/>
</svg>
