<svg width="25" height="24" viewBox="0 0 25 24" fill="none" xmlns="http://www.w3.org/2000/svg">
<path fill-rule="evenodd" clip-rule="evenodd" d="M0.599976 4.36363C0.599976 1.95366 2.55364 0 4.9636 0H8.04381C10.4538 0 12.4074 1.95366 12.4074 4.36363V7.44384C12.4074 9.8538 10.4538 11.8075 8.04381 11.8075H4.9636C2.55364 11.8075 0.599976 9.8538 0.599976 7.44384V4.36363ZM4.9636 2.18181C3.75862 2.18181 2.78179 3.15865 2.78179 4.36363V7.44384C2.78179 8.64882 3.75862 9.62565 4.9636 9.62565H8.04381C9.24879 9.62565 10.2256 8.64882 10.2256 7.44384V4.36363C10.2256 3.15865 9.24879 2.18181 8.04381 2.18181H4.9636Z" fill="#3FC174"/>
<path fill-rule="evenodd" clip-rule="evenodd" d="M0.599976 16.556C0.599976 14.146 2.55364 12.1924 4.9636 12.1924H8.04381C10.4538 12.1924 12.4074 14.146 12.4074 16.556V19.6362C12.4074 22.0462 10.4538 23.9998 8.04381 23.9998H4.9636C2.55364 23.9998 0.599976 22.0462 0.599976 19.6362V16.556ZM4.9636 14.3742C3.75862 14.3742 2.78179 15.351 2.78179 16.556V19.6362C2.78179 20.8412 3.75862 21.818 4.9636 21.818H8.04381C9.24879 21.818 10.2256 20.8412 10.2256 19.6362V16.556C10.2256 15.351 9.24879 14.3742 8.04381 14.3742H4.9636Z" fill="#3FC174"/>
<path fill-rule="evenodd" clip-rule="evenodd" d="M12.7925 4.36363C12.7925 1.95366 14.7461 0 17.1561 0H20.2363C22.6463 0 24.5999 1.95366 24.5999 4.36363V7.44384C24.5999 9.8538 22.6463 11.8075 20.2363 11.8075H17.1561C14.7461 11.8075 12.7925 9.8538 12.7925 7.44384V4.36363ZM17.1561 2.18181C15.9511 2.18181 14.9743 3.15865 14.9743 4.36363V7.44384C14.9743 8.64882 15.9511 9.62565 17.1561 9.62565H20.2363C21.4413 9.62565 22.4181 8.64882 22.4181 7.44384V4.36363C22.4181 3.15865 21.4413 2.18181 20.2363 2.18181H17.1561Z" fill="#3FC174"/>
<path fill-rule="evenodd" clip-rule="evenodd" d="M12.7925 16.556C12.7925 14.146 14.7461 12.1924 17.1561 12.1924H20.2363C22.6463 12.1924 24.5999 14.146 24.5999 16.556V19.6362C24.5999 22.0462 22.6463 23.9998 20.2363 23.9998H17.1561C14.7461 23.9998 12.7925 22.0462 12.7925 19.6362V16.556ZM17.1561 14.3742C15.9511 14.3742 14.9743 15.351 14.9743 16.556V19.6362C14.9743 20.8412 15.9511 21.818 17.1561 21.818H20.2363C21.4413 21.818 22.4181 20.8412 22.4181 19.6362V16.556C22.4181 15.351 21.4413 14.3742 20.2363 14.3742H17.1561Z" fill="#3FC174"/>
</svg>
