<svg width="25" height="24" viewBox="0 0 25 24" fill="none" xmlns="http://www.w3.org/2000/svg">
<path d="M9.16936 10.6616C9.30971 10.5806 9.42626 10.4641 9.50728 10.3238C9.5883 10.1834 9.63093 10.0243 9.63089 9.86225V1.5572C9.63007 1.41008 9.59407 1.26529 9.5259 1.1349C9.45772 1.00451 9.35935 0.892313 9.23899 0.807655C9.11863 0.722998 8.97976 0.668338 8.83397 0.648235C8.68818 0.628132 8.5397 0.643167 8.4009 0.692088C5.70667 1.64534 3.44092 3.52808 2.01097 6.00187C0.581019 8.47565 0.0806476 11.3782 0.599807 14.1878C0.626717 14.3331 0.688133 14.4698 0.77889 14.5864C0.869646 14.703 0.98709 14.7962 1.12134 14.858C1.24233 14.9145 1.37432 14.9437 1.50788 14.9433C1.66989 14.9434 1.82907 14.9008 1.96941 14.8199L9.16936 10.6616ZM7.78475 2.95522V9.32935L2.26018 12.5164C2.24633 12.3422 2.24633 12.1669 2.24633 11.9962C2.24797 10.1257 2.7659 8.29186 3.74308 6.69669C4.72027 5.10152 6.11882 3.80684 7.78475 2.95522ZM22.8239 6.05808C22.8135 6.03731 22.8031 6.0154 22.7904 5.99464C22.7777 5.97387 22.7673 5.95657 22.7546 5.93812C21.6966 4.13154 20.1844 2.63302 18.368 1.59135C16.5515 0.549673 14.4942 0.00106814 12.4001 0C12.1553 0 11.9205 0.0972216 11.7474 0.270277C11.5743 0.443333 11.477 0.678046 11.477 0.922784V11.5152L2.38364 16.8097C2.27812 16.8708 2.18577 16.9523 2.11192 17.0493C2.03807 17.1464 1.98419 17.2571 1.9534 17.375C1.92261 17.493 1.91551 17.6159 1.93252 17.7367C1.94953 17.8574 1.9903 17.9736 2.05249 18.0785C3.38664 20.3497 5.43139 22.1188 7.8712 23.1128C10.311 24.1069 13.0103 24.2706 15.5524 23.5787C18.0945 22.8868 20.3382 21.3778 21.9372 19.2845C23.5362 17.1912 24.4017 14.63 24.4 11.9962C24.4027 9.91315 23.8592 7.86577 22.8239 6.05808ZM13.3232 1.88709C14.7872 2.02181 16.2045 2.47255 17.4772 3.2082C18.75 3.94386 19.8478 4.94689 20.695 6.14805L13.3232 10.4401V1.88709ZM12.4001 22.1468C10.7887 22.1427 9.20112 21.7571 7.76739 21.0218C6.33366 20.2864 5.09449 19.222 4.15132 17.9159L12.8513 12.8509L12.8766 12.8348L21.6193 7.74446C22.3329 9.29099 22.6457 10.9921 22.5291 12.6913C22.4124 14.3904 21.87 16.0329 20.9517 17.4674C20.0334 18.902 18.7688 20.0825 17.2744 20.9002C15.78 21.718 14.1038 22.1467 12.4001 22.1468Z" fill="#8C8C8C"/>
</svg>
